<svg xmlns="http://www.w3.org/2000/svg" width="160.316" height="33.035" viewBox="0 0 160.316 33.035">
  <g id="Group_1" data-name="Group 1" transform="translate(-382.136 -318.5)">
    <path id="Path_1" data-name="Path 1" d="M414.192,334.508a1.66,1.66,0,0,0-1.01.311,1.292,1.292,0,0,0-.526.742l-4.247,14.932q-.276,1.1-.5,2.469a21.683,21.683,0,0,0-.656-2.469l-4.885-14.932a1.8,1.8,0,0,0-.57-.76,1.564,1.564,0,0,0-.984-.294H399.45a1.528,1.528,0,0,0-.993.328,1.634,1.634,0,0,0-.544.725l-4.9,14.932q-.19.553-.354,1.191t-.3,1.364q-.138-.707-.268-1.355t-.268-1.2l-4.246-14.932a1.373,1.373,0,0,0-.544-.768,1.714,1.714,0,0,0-1.01-.285h-3.884l7.734,24.961h4.212l5.507-17.055q.12-.328.224-.708t.207-.811a11.54,11.54,0,0,0,.415,1.519l5.455,17.055h4.195l7.751-24.961Z" transform="translate(0 -11.971)" fill="#2f4d9c"/>
    <path id="Path_2" data-name="Path 2" d="M514.547,334.508l-9.823,24.961h3.625a1.494,1.494,0,0,0,.984-.328,1.653,1.653,0,0,0,.535-.725l1.865-5.092h10.34l1.864,5.092a1.877,1.877,0,0,0,.57.751,1.529,1.529,0,0,0,.984.3h3.591l-9.8-24.961Zm-1.606,15.536,3.021-8.268q.224-.57.466-1.338t.466-1.648q.242.88.483,1.64t.466,1.312l3.038,8.3Z" transform="translate(-91.674 -11.971)" fill="#2f4d9c"/>
    <path id="Path_3" data-name="Path 3" d="M610.081,348.759a.833.833,0,0,0,.25.613.945.945,0,0,0,.7.25h3.142v4.523a12.079,12.079,0,0,1-2.123.794,10.407,10.407,0,0,1-5.973-.319,7.354,7.354,0,0,1-2.684-1.778,8.042,8.042,0,0,1-1.727-2.848,11.137,11.137,0,0,1-.613-3.824,10.9,10.9,0,0,1,.569-3.625,8.012,8.012,0,0,1,1.623-2.779,7.069,7.069,0,0,1,2.546-1.778,8.62,8.62,0,0,1,3.34-.621,11.584,11.584,0,0,1,2.011.155,10.44,10.44,0,0,1,1.571.4,7.379,7.379,0,0,1,1.269.57l1.139.656a1.449,1.449,0,0,0,1.087.25,1.267,1.267,0,0,0,.811-.613l1.33-2.106a12.328,12.328,0,0,0-1.709-1.329,10.647,10.647,0,0,0-2.063-1.027,14.431,14.431,0,0,0-2.451-.664,15.782,15.782,0,0,0-2.84-.242,14.771,14.771,0,0,0-5.385.932,11.366,11.366,0,0,0-6.681,6.663,14.1,14.1,0,0,0-.915,5.161,13.545,13.545,0,0,0,.949,5.127,11.565,11.565,0,0,0,2.7,4.04,12.385,12.385,0,0,0,4.229,2.641,15.352,15.352,0,0,0,5.533.949,15.877,15.877,0,0,0,4.6-.647,13.242,13.242,0,0,0,4.048-2.045v-10.1h-8.286Z" transform="translate(-160.161 -11.152)" fill="#2f4d9c"/>
    <path id="Path_4" data-name="Path 4" d="M714.57,339.61a11.854,11.854,0,0,0-1.89-2.563,11.365,11.365,0,0,0-2.511-1.951,12.549,12.549,0,0,0-3.073-1.242,14,14,0,0,0-3.573-.441,13.449,13.449,0,0,0-5.161.958,11.731,11.731,0,0,0-4,2.667,11.965,11.965,0,0,0-2.581,4.048,14.582,14.582,0,0,0,0,10.168,11.968,11.968,0,0,0,2.581,4.048,11.739,11.739,0,0,0,4,2.667,14.428,14.428,0,0,0,10.34,0,11.654,11.654,0,0,0,3.988-2.667,11.932,11.932,0,0,0,2.563-4.048,13.952,13.952,0,0,0,.907-5.084,14.64,14.64,0,0,0-.406-3.487A12.563,12.563,0,0,0,714.57,339.61Zm-3.712,10.245a7.806,7.806,0,0,1-1.571,2.762,6.769,6.769,0,0,1-2.477,1.735,9.25,9.25,0,0,1-6.577,0,6.85,6.85,0,0,1-2.486-1.735,7.736,7.736,0,0,1-1.579-2.762,12.574,12.574,0,0,1,0-7.371,7.828,7.828,0,0,1,1.579-2.77,6.808,6.808,0,0,1,2.486-1.744,9.25,9.25,0,0,1,6.577,0,6.728,6.728,0,0,1,2.477,1.744,7.9,7.9,0,0,1,1.571,2.77,12.568,12.568,0,0,1,0,7.371Z" transform="translate(-230.878 -11.152)" fill="#2f4d9c"/>
    <path id="Path_5" data-name="Path 5" d="M850.851,318.5H801.085a2.8,2.8,0,0,0-2.8,2.8v27.428a2.8,2.8,0,0,0,2.8,2.8h49.766a2.8,2.8,0,0,0,2.8-2.8V321.3A2.8,2.8,0,0,0,850.851,318.5Zm-26.109,28.983h-2.4a2.124,2.124,0,0,1-.915-.172,2.028,2.028,0,0,1-.708-.622l-13.053-16.627q.052.553.077,1.1t.026.993v15.331h-4.092V322.517h2.435a4.258,4.258,0,0,1,.518.026,1.209,1.209,0,0,1,.371.1,1.255,1.255,0,0,1,.32.225,3.586,3.586,0,0,1,.345.388l13.1,16.7q-.069-.6-.1-1.182t-.026-1.079V322.517h4.092Zm23.515,0h-2.4a2.124,2.124,0,0,1-.915-.172,2.029,2.029,0,0,1-.708-.622l-13.053-16.627q.052.553.077,1.1t.026.993v15.331h-4.092V322.517h2.434a4.259,4.259,0,0,1,.518.026,1.21,1.21,0,0,1,.371.1,1.255,1.255,0,0,1,.32.225,3.612,3.612,0,0,1,.345.388l13.1,16.7q-.069-.6-.1-1.182t-.026-1.079V322.517h4.092Z" transform="translate(-311.203)" fill="#2f4d9c"/>
  </g>
</svg>
